<svg width="484" height="564" viewBox="0 0 484 564" fill="none" xmlns="http://www.w3.org/2000/svg">
<path d="M361.178 564H115.511C88.8774 564 67.2092 542.409 67.2092 515.87V48.1292C67.2092 21.5908 88.8774 0 115.511 0H361.178C387.811 0 409.479 21.5908 409.479 48.1292V515.87C409.479 542.409 387.811 564 361.178 564Z" fill="#F2F2F2"/>
<path d="M409.479 172.051C408.352 172.051 407.436 172.964 407.436 174.087V239.242C407.436 240.365 408.352 241.278 409.479 241.278C410.606 241.278 411.523 240.365 411.523 239.242V174.087C411.523 172.964 410.606 172.051 409.479 172.051Z" fill="#F2F2F2"/>
<path d="M404.882 48.1295V515.862C404.882 538.962 386.839 557.857 364.024 559.323H364.014C363.677 559.343 363.34 559.364 362.992 559.374C362.389 559.404 361.787 559.414 361.174 559.414C361.174 559.414 358.926 559.252 354.819 558.946C350.67 558.641 344.632 558.183 337.102 557.582C334.844 557.409 332.464 557.215 329.95 557.012C324.944 556.605 319.447 556.157 313.552 555.648C311.202 555.454 308.77 555.241 306.288 555.027C293.598 553.937 279.386 552.665 264.398 551.219C261.864 550.985 259.31 550.741 256.735 550.486C256.061 550.415 255.376 550.354 254.692 550.283C244.005 549.234 233.021 548.104 221.997 546.903C221.313 546.831 220.628 546.76 219.954 546.689C200.96 544.602 181.896 542.332 164.057 539.888C150.335 538.015 137.339 536.04 125.671 533.994C121.871 533.322 118.213 532.65 114.719 531.968C114.034 531.836 113.35 531.703 112.675 531.561C87.9808 526.633 71.8073 521.319 71.8073 515.862V48.1295C71.8073 24.0731 91.3729 4.57739 115.516 4.57739H141.61C145.778 4.57739 149.13 7.81478 149.487 11.9583C149.518 12.2331 149.549 12.508 149.6 12.7829C150.356 16.9467 154.187 19.8481 158.437 19.8481H318.252C322.502 19.8481 326.333 16.9467 327.09 12.7829C327.141 12.508 327.171 12.2331 327.202 11.9583C327.56 7.81478 330.911 4.57739 335.079 4.57739H361.174C385.316 4.57739 404.882 24.0731 404.882 48.1295Z" fill="white"/>
<path d="M66.1877 123.184C65.0607 123.184 64.1443 124.097 64.1443 125.22V141.509C64.1443 142.632 65.0607 143.545 66.1877 143.545C67.3146 143.545 68.2311 142.632 68.2311 141.509V125.22C68.2311 124.097 67.3146 123.184 66.1877 123.184Z" fill="#F2F2F2"/>
<path d="M66.1877 172.051C65.0607 172.051 64.1443 172.964 64.1443 174.087V205.646C64.1443 206.769 65.0607 207.682 66.1877 207.682C67.3146 207.682 68.2311 206.769 68.2311 205.646V174.087C68.2311 172.964 67.3146 172.051 66.1877 172.051Z" fill="#F2F2F2"/>
<path d="M66.1877 216.845C65.0607 216.845 64.1443 217.758 64.1443 218.881V250.44C64.1443 251.563 65.0607 252.476 66.1877 252.476C67.3146 252.476 68.2311 251.563 68.2311 250.44V218.881C68.2311 217.758 67.3146 216.845 66.1877 216.845Z" fill="#F2F2F2"/>
<path d="M139.239 11.7076H103.48C102.351 11.7076 101.436 12.6192 101.436 13.7437V14.7618C101.436 15.8863 102.351 16.7979 103.48 16.7979H139.239C140.368 16.7979 141.283 15.8863 141.283 14.7618V13.7437C141.283 12.6192 140.368 11.7076 139.239 11.7076Z" fill="#F2F2F2"/>
<path d="M341.536 16.798C343.793 16.798 345.623 14.9748 345.623 12.7258C345.623 10.4767 343.793 8.65356 341.536 8.65356C339.279 8.65356 337.449 10.4767 337.449 12.7258C337.449 14.9748 339.279 16.798 341.536 16.798Z" fill="#F2F2F2"/>
<path d="M352.775 16.798C355.032 16.798 356.862 14.9748 356.862 12.7258C356.862 10.4767 355.032 8.65356 352.775 8.65356C350.518 8.65356 348.688 10.4767 348.688 12.7258C348.688 14.9748 350.518 16.798 352.775 16.798Z" fill="#F2F2F2"/>
<path d="M364.014 16.798C366.271 16.798 368.1 14.9748 368.1 12.7258C368.1 10.4767 366.271 8.65356 364.014 8.65356C361.756 8.65356 359.927 10.4767 359.927 12.7258C359.927 14.9748 361.756 16.798 364.014 16.798Z" fill="#F2F2F2"/>
<path d="M121.266 160.267C132.218 160.267 141.097 151.607 141.097 140.924C141.097 130.241 132.218 121.581 121.266 121.581C110.315 121.581 101.436 130.241 101.436 140.924C101.436 151.607 110.315 160.267 121.266 160.267Z" fill="#6C63FF"/>
<path d="M280.236 134.307H173.498C169.837 134.307 166.857 131.338 166.857 127.689C166.857 124.041 169.837 121.072 173.498 121.072H280.236C283.898 121.072 286.877 124.041 286.877 127.689C286.877 131.338 283.898 134.307 280.236 134.307Z" fill="#E6E6E6"/>
<path d="M108.645 358.229C106.941 358.229 105.555 359.61 105.555 361.307C105.555 363.005 106.941 364.386 108.645 364.386H220.442C222.146 364.386 223.532 363.005 223.532 361.307C223.532 359.61 222.146 358.229 220.442 358.229H108.645Z" fill="#F2F2F2"/>
<path d="M363.535 156.704H173.498C169.837 156.704 166.857 153.735 166.857 150.086C166.857 146.438 169.837 143.469 173.498 143.469H363.535C367.197 143.469 370.176 146.438 370.176 150.086C370.176 153.735 367.197 156.704 363.535 156.704Z" fill="#E6E6E6"/>
<path d="M146.647 63.0432H106.034C103.217 63.0432 100.925 60.7595 100.925 57.9529C100.925 55.1463 103.217 52.8627 106.034 52.8627H146.647C149.464 52.8627 151.755 55.1463 151.755 57.9529C151.755 60.7595 149.464 63.0432 146.647 63.0432Z" fill="#E6E6E6"/>
<path d="M363.024 53.3717H322.411C319.872 53.3717 317.814 55.4228 317.814 57.9529C317.814 60.4831 319.872 62.5342 322.411 62.5342H363.024C365.563 62.5342 367.622 60.4831 367.622 57.9529C367.622 55.4228 365.563 53.3717 363.024 53.3717Z" fill="#6C63FF"/>
<path d="M304.787 63.0432H264.174C261.358 63.0432 259.066 60.7595 259.066 57.9529C259.066 55.1463 261.358 52.8627 264.174 52.8627H304.787C307.604 52.8627 309.896 55.1463 309.896 57.9529C309.896 60.7595 307.604 63.0432 304.787 63.0432Z" fill="#E6E6E6"/>
<path d="M152.521 343.279H113.697C106.654 343.279 100.925 337.571 100.925 330.554V317.913C100.925 310.896 106.654 305.188 113.697 305.188H152.521C159.563 305.188 165.292 310.896 165.292 317.913V330.554C165.292 337.571 159.563 343.279 152.521 343.279Z" fill="#F2F2F2"/>
<path d="M357.405 270.427H113.697C106.654 270.427 100.925 264.718 100.925 257.701V202.007C100.925 194.99 106.654 189.281 113.697 189.281H357.405C364.447 189.281 370.176 194.99 370.176 202.007V257.701C370.176 264.718 364.447 270.427 357.405 270.427Z" fill="#6C63FF"/>
<path d="M355.84 343.279H317.015C309.973 343.279 304.244 337.571 304.244 330.554V317.913C304.244 310.896 309.973 305.188 317.015 305.188H355.84C362.882 305.188 368.611 310.896 368.611 317.913V330.554C368.611 337.571 362.882 343.279 355.84 343.279Z" fill="#F2F2F2"/>
<path d="M253.191 343.279H214.366C207.324 343.279 201.595 337.571 201.595 330.554V317.913C201.595 310.896 207.324 305.188 214.366 305.188H253.191C260.233 305.188 265.962 310.896 265.962 317.913V330.554C265.962 337.571 260.233 343.279 253.191 343.279Z" fill="#F2F2F2"/>
<path d="M166.347 399.509H135.696V428.014H166.347V399.509Z" fill="#F2F2F2"/>
<path d="M166.347 440.231H148.978V468.736H166.347V440.231Z" fill="#F2F2F2"/>
<path d="M206.193 440.231H175.542V468.736H206.193V440.231Z" fill="#F2F2F2"/>
<path d="M206.193 480.953H175.542V509.458H206.193V480.953Z" fill="#F2F2F2"/>
<path d="M246.039 440.231H215.388V468.736H246.039V440.231Z" fill="#F2F2F2"/>
<path d="M206.193 399.509H175.542V428.014H206.193V399.509Z" fill="#F2F2F2"/>
<path d="M246.039 399.509H215.388V428.014H246.039V399.509Z" fill="#F2F2F2"/>
<path d="M325.732 399.509H295.081V428.014H325.732V399.509Z" fill="#F2F2F2"/>
<path d="M246.039 480.953H215.388V509.458H246.039V480.953Z" fill="#F2F2F2"/>
<path d="M285.886 399.509H255.235V428.014H285.886V399.509Z" fill="#F2F2F2"/>
<path d="M341.568 440.231H321.645V468.736H341.568C344.39 468.736 346.677 466.457 346.677 463.646V445.321C346.677 442.51 344.39 440.231 341.568 440.231Z" fill="#F2F2F2"/>
<path d="M166.347 480.953H160.216C157.395 480.953 155.108 483.232 155.108 486.043V504.368C155.108 507.179 157.395 509.458 160.216 509.458H166.347V480.953Z" fill="#F2F2F2"/>
<path d="M285.886 480.953H255.235V509.458H285.886V480.953Z" fill="#F2F2F2"/>
<path d="M364.557 399.509H334.927V428.014H364.557C367.378 428.014 369.665 425.735 369.665 422.924V404.599C369.665 401.788 367.378 399.509 364.557 399.509Z" fill="#F2F2F2"/>
<path d="M312.45 481.382C311.823 481.109 311.134 480.953 310.406 480.953H295.081V509.458H310.406C311.134 509.458 311.823 509.301 312.45 509.028V481.382Z" fill="#F2F2F2"/>
<path d="M285.886 440.231H255.235V468.736H285.886V440.231Z" fill="#F2F2F2"/>
<path d="M312.45 440.231H295.081V468.736H312.45V440.231Z" fill="#F2F2F2"/>
<path d="M139.782 440.231H129.054C126.233 440.231 123.946 442.51 123.946 445.321V463.646C123.946 466.457 126.233 468.736 129.054 468.736H139.782V440.231Z" fill="#F2F2F2"/>
<path d="M126.5 399.509H106.066C103.245 399.509 100.958 401.788 100.958 404.599V422.924C100.958 425.735 103.245 428.014 106.066 428.014H126.5V399.509Z" fill="#F2F2F2"/>
<path d="M323.701 552.781L314.598 552.78L310.268 517.796L323.703 517.797L323.701 552.781Z" fill="#FFB6B6"/>
<path d="M324.021 562.243L296.03 562.242V561.889C296.03 555.893 300.908 551.033 306.925 551.033H306.925L312.038 547.168L321.578 551.034L324.022 551.034L324.021 562.243H324.021Z" fill="#2F2E41"/>
<path d="M380.37 552.781L371.267 552.78L366.937 517.796L380.372 517.797L380.37 552.781Z" fill="#FFB6B6"/>
<path d="M380.69 562.243L352.699 562.242V561.889C352.699 555.893 357.577 551.033 363.594 551.033H363.594L368.707 547.168L378.247 551.034L380.691 551.034L380.69 562.243Z" fill="#2F2E41"/>
<path d="M398.755 284.875H320.579L311.089 314.086L308.799 438.313L309.2 535.247L327.004 535.313L342.683 431.117C342.683 431.117 340.939 420.869 344.011 422.293C347.083 423.717 341.891 411.142 345.509 412.339C349.127 413.537 352.646 364.906 352.646 364.906L361.273 438.313L366.814 535.247H382.87L396.336 385.736C396.336 385.736 392.107 376.687 397.692 370.679C403.277 364.67 402.704 315.027 402.704 315.027L398.755 284.875Z" fill="#2F2E41"/>
<path d="M400.815 283.03C400.815 283.03 408.311 293.667 401.771 310.331C390.903 338.026 318.803 314.733 314.389 297.479C307.606 295.146 318.913 291.734 315.585 286.075C315.382 285.73 317.454 293.407 315.811 284.912C313.175 271.276 317.7 229.387 317.7 229.387L319.195 204.527C320.642 180.447 330.467 157.622 346.979 139.981L346.979 139.981H384.521L400.815 166.332L402.503 232.379L400.815 283.03H400.815Z" fill="#3F3D56"/>
<path d="M286.383 285.543L298.023 267.958L308.175 273.799L295.26 291.913C295.301 292.612 295.251 293.329 295.095 294.046C294.248 297.946 290.658 300.359 287.078 299.437C283.497 298.514 281.281 294.605 282.128 290.705C282.668 288.218 284.326 286.341 286.383 285.543H286.383Z" fill="#FFB6B6"/>
<path d="M341.48 145.628H341.48C328.44 145.628 317.711 155.855 317.133 168.836L314.642 224.756C314.642 224.756 314.624 227.862 313.471 226.942C312.317 226.022 312.22 229.275 312.22 229.275C312.22 229.275 312.168 234.249 311.08 231.402C309.992 228.554 309.844 233.707 309.844 233.707L294.007 260.859C296.135 265.244 294.481 270.666 293.955 275.082L305.342 285.526C305.342 285.526 305.243 282.391 307.697 282.444C322.745 282.768 338.151 242.268 337.892 227.288C337.597 210.196 341.48 145.628 341.48 145.628L341.48 145.628Z" fill="#3F3D56"/>
<path d="M346.83 67.8262L358.47 85.4105L368.622 79.57L355.707 61.4557C355.748 60.7567 355.698 60.0397 355.542 59.3227C354.695 55.423 351.105 53.0096 347.525 53.9321C343.944 54.8547 341.728 58.764 342.575 62.6636C343.115 65.1506 344.773 67.028 346.83 67.8262H346.83Z" fill="#FFB6B6"/>
<path d="M401.927 207.741H401.927C388.887 207.741 378.158 197.514 377.58 184.533L375.089 128.613C375.089 128.613 375.071 125.507 373.918 126.427C372.764 127.347 372.667 124.094 372.667 124.094C372.667 124.094 372.615 119.12 371.527 121.967C370.439 124.815 370.291 119.662 370.291 119.662L349.581 81.0256L350.757 75.9857L362.091 67.5157C362.091 67.5157 366.671 68.9685 368.144 70.9252C375.576 80.7973 398.064 111.816 398.339 126.081C398.669 143.172 401.927 207.741 401.927 207.741Z" fill="#3F3D56"/>
<path d="M355.966 134.329C356.521 134.457 357.076 134.568 357.631 134.653C359.357 134.934 361.082 135.019 362.765 134.917C367.873 134.653 372.691 132.772 376.586 129.674C380.703 126.405 383.778 121.784 385.068 116.286C388.1 103.306 379.994 90.3176 366.968 87.2962C354.129 84.3087 341.291 92.105 338.011 104.753C337.96 104.949 337.908 105.136 337.866 105.332C334.833 118.32 342.931 131.299 355.966 134.329V134.329Z" fill="#FFB6B6"/>
<path d="M386.327 118.731C382.945 127.624 374.388 134.673 364.849 135.097C363.225 135.163 361.534 135.04 360.098 134.269C358.653 133.506 357.539 131.972 357.662 130.354C357.917 127.163 362.271 125.94 363.499 122.975C364.311 121.018 363.376 118.505 361.468 117.555C359.56 116.614 356.982 117.366 355.895 119.202C357.879 116.19 356.717 111.946 354.214 109.358C351.721 106.76 348.217 105.433 344.835 104.172L344.76 102.892C342.37 103.805 339.764 101.97 338.725 99.5888C339.934 98.1301 340.699 96.3608 341.435 94.6198C340.444 95.3162 339.339 95.8244 338.167 96.135C338.234 94.0645 335.117 93.0764 335.646 91.0436C336.382 88.2203 340.642 83.9947 339.244 81.4348C341.851 82.1689 343.551 85.1993 342.814 87.7967C343.749 85.2557 344.684 82.7147 345.619 80.1644C346.347 81.9337 347.074 83.7029 347.811 85.4628C351.371 83.2512 355.055 81.0019 359.192 80.2961C363.329 79.5809 368.089 80.7855 370.403 84.2864C372.811 82.8277 376.041 83.2794 378.421 84.7946C380.801 86.3098 382.464 88.7096 383.795 91.1941C388.31 99.57 389.708 109.847 386.327 118.731V118.731Z" fill="#2F2E41"/>
</svg>
